<mxfile host="app.diagrams.net" modified="2023-08-15T17:30:22.941Z" agent="Mozilla/5.0 (Windows NT 10.0; Win64; x64) AppleWebKit/537.36 (KHTML, like Gecko) Chrome/115.0.0.0 Safari/537.36 Edg/115.0.1901.203" etag="8YeGI5paprjrNVWFKOnB" version="21.6.8" type="github">
  <diagram name="Page-1" id="74e2e168-ea6b-b213-b513-2b3c1d86103e">
    <mxGraphModel dx="1379" dy="764" grid="1" gridSize="10" guides="1" tooltips="1" connect="1" arrows="1" fold="1" page="1" pageScale="1" pageWidth="1100" pageHeight="850" background="none" math="0" shadow="0">
      <root>
        <mxCell id="0" />
        <mxCell id="1" parent="0" />
        <mxCell id="77e6c97f196da883-1" value="Pool" style="swimlane;html=1;childLayout=stackLayout;startSize=20;rounded=0;shadow=0;labelBackgroundColor=none;strokeWidth=1;fontFamily=Verdana;fontSize=8;align=center;" parent="1" vertex="1">
          <mxGeometry x="70" y="40" width="1250" height="750" as="geometry" />
        </mxCell>
        <mxCell id="77e6c97f196da883-2" value="Lane 1" style="swimlane;html=1;startSize=20;" parent="77e6c97f196da883-1" vertex="1">
          <mxGeometry y="20" width="160" height="730" as="geometry" />
        </mxCell>
        <mxCell id="JY_JNldOcuyJMrii4reW-22" value="เริ่มต้น" style="ellipse;whiteSpace=wrap;html=1;" vertex="1" parent="77e6c97f196da883-2">
          <mxGeometry x="20" y="55" width="120" height="80" as="geometry" />
        </mxCell>
        <mxCell id="77e6c97f196da883-33" style="edgeStyle=orthogonalEdgeStyle;rounded=1;html=1;labelBackgroundColor=none;startArrow=none;startFill=0;startSize=5;endArrow=classicThin;endFill=1;endSize=5;jettySize=auto;orthogonalLoop=1;strokeWidth=1;fontFamily=Verdana;fontSize=8" parent="77e6c97f196da883-1" source="77e6c97f196da883-13" edge="1">
          <mxGeometry relative="1" as="geometry">
            <mxPoint x="560" y="115" as="targetPoint" />
          </mxGeometry>
        </mxCell>
        <mxCell id="77e6c97f196da883-3" value="Lane 2" style="swimlane;html=1;startSize=20;" parent="77e6c97f196da883-1" vertex="1">
          <mxGeometry x="160" y="20" width="160" height="730" as="geometry" />
        </mxCell>
        <mxCell id="JY_JNldOcuyJMrii4reW-25" value="&lt;font style=&quot;font-size: 12px;&quot;&gt;&lt;span style=&quot;color: rgb(0, 0, 0); font-family: Verdana; font-style: normal; font-variant-ligatures: normal; font-variant-caps: normal; font-weight: 400; letter-spacing: normal; orphans: 2; text-align: center; text-indent: 0px; text-transform: none; widows: 2; word-spacing: 0px; -webkit-text-stroke-width: 0px; background-color: rgb(251, 251, 251); text-decoration-thickness: initial; text-decoration-style: initial; text-decoration-color: initial; float: none; display: inline !important;&quot;&gt;เรียกข้อมูลพนักงาน&lt;/span&gt;&lt;br&gt;&lt;/font&gt;" style="shape=parallelogram;perimeter=parallelogramPerimeter;whiteSpace=wrap;html=1;fixedSize=1;" vertex="1" parent="77e6c97f196da883-3">
          <mxGeometry x="20" y="65" width="120" height="60" as="geometry" />
        </mxCell>
        <mxCell id="77e6c97f196da883-4" value="Lane 3" style="swimlane;html=1;startSize=20;" parent="77e6c97f196da883-1" vertex="1">
          <mxGeometry x="320" y="20" width="210" height="730" as="geometry" />
        </mxCell>
        <mxCell id="JY_JNldOcuyJMrii4reW-6" style="edgeStyle=orthogonalEdgeStyle;rounded=0;orthogonalLoop=1;jettySize=auto;html=1;entryX=0.5;entryY=0;entryDx=0;entryDy=0;" edge="1" parent="77e6c97f196da883-4" source="77e6c97f196da883-13" target="JY_JNldOcuyJMrii4reW-5">
          <mxGeometry relative="1" as="geometry" />
        </mxCell>
        <mxCell id="77e6c97f196da883-13" value="&lt;font style=&quot;font-size: 12px;&quot;&gt;ยอดขาย &amp;lt;=50,000&lt;/font&gt;" style="rhombus;whiteSpace=wrap;html=1;rounded=0;shadow=0;labelBackgroundColor=none;strokeWidth=1;fontFamily=Verdana;fontSize=8;align=center;" parent="77e6c97f196da883-4" vertex="1">
          <mxGeometry x="40" y="50" width="120" height="90" as="geometry" />
        </mxCell>
        <mxCell id="JY_JNldOcuyJMrii4reW-13" style="edgeStyle=orthogonalEdgeStyle;rounded=0;orthogonalLoop=1;jettySize=auto;html=1;entryX=0.5;entryY=0;entryDx=0;entryDy=0;" edge="1" parent="77e6c97f196da883-4" source="JY_JNldOcuyJMrii4reW-5" target="JY_JNldOcuyJMrii4reW-11">
          <mxGeometry relative="1" as="geometry" />
        </mxCell>
        <mxCell id="JY_JNldOcuyJMrii4reW-5" value="" style="rhombus;whiteSpace=wrap;html=1;rounded=0;shadow=0;labelBackgroundColor=none;strokeWidth=1;fontFamily=Verdana;fontSize=8;align=center;" vertex="1" parent="77e6c97f196da883-4">
          <mxGeometry x="40" y="170" width="120" height="90" as="geometry" />
        </mxCell>
        <mxCell id="JY_JNldOcuyJMrii4reW-7" value="50,001 &amp;lt;= ยอดขาย &amp;lt;= 100,000" style="text;html=1;strokeColor=none;fillColor=none;align=center;verticalAlign=middle;whiteSpace=wrap;rounded=0;" vertex="1" parent="77e6c97f196da883-4">
          <mxGeometry x="45" y="200" width="110" height="50" as="geometry" />
        </mxCell>
        <mxCell id="JY_JNldOcuyJMrii4reW-10" value="ใช่" style="text;html=1;strokeColor=none;fillColor=none;align=center;verticalAlign=middle;whiteSpace=wrap;rounded=0;" vertex="1" parent="77e6c97f196da883-4">
          <mxGeometry x="155" y="190" width="60" height="30" as="geometry" />
        </mxCell>
        <mxCell id="JY_JNldOcuyJMrii4reW-4" value="ใช่" style="text;html=1;strokeColor=none;fillColor=none;align=center;verticalAlign=middle;whiteSpace=wrap;rounded=0;" vertex="1" parent="77e6c97f196da883-4">
          <mxGeometry x="160" y="70" width="60" height="30" as="geometry" />
        </mxCell>
        <mxCell id="JY_JNldOcuyJMrii4reW-11" value="" style="rhombus;whiteSpace=wrap;html=1;rounded=0;shadow=0;labelBackgroundColor=none;strokeWidth=1;fontFamily=Verdana;fontSize=8;align=center;" vertex="1" parent="77e6c97f196da883-4">
          <mxGeometry x="40" y="290" width="120" height="90" as="geometry" />
        </mxCell>
        <mxCell id="JY_JNldOcuyJMrii4reW-12" value="ยอดขาย &amp;gt; 100,000" style="text;html=1;strokeColor=none;fillColor=none;align=center;verticalAlign=middle;whiteSpace=wrap;rounded=0;" vertex="1" parent="77e6c97f196da883-4">
          <mxGeometry x="45" y="310" width="110" height="50" as="geometry" />
        </mxCell>
        <mxCell id="JY_JNldOcuyJMrii4reW-16" value="ใช่" style="text;html=1;strokeColor=none;fillColor=none;align=center;verticalAlign=middle;whiteSpace=wrap;rounded=0;" vertex="1" parent="77e6c97f196da883-4">
          <mxGeometry x="155" y="310" width="60" height="30" as="geometry" />
        </mxCell>
        <mxCell id="JY_JNldOcuyJMrii4reW-42" value="ไม่" style="text;html=1;strokeColor=none;fillColor=none;align=center;verticalAlign=middle;whiteSpace=wrap;rounded=0;" vertex="1" parent="77e6c97f196da883-4">
          <mxGeometry x="100" y="140" width="60" height="30" as="geometry" />
        </mxCell>
        <mxCell id="JY_JNldOcuyJMrii4reW-43" value="ไม่" style="text;html=1;strokeColor=none;fillColor=none;align=center;verticalAlign=middle;whiteSpace=wrap;rounded=0;" vertex="1" parent="77e6c97f196da883-4">
          <mxGeometry x="106" y="260" width="60" height="30" as="geometry" />
        </mxCell>
        <mxCell id="JY_JNldOcuyJMrii4reW-9" style="edgeStyle=orthogonalEdgeStyle;rounded=0;orthogonalLoop=1;jettySize=auto;html=1;" edge="1" parent="77e6c97f196da883-1" source="JY_JNldOcuyJMrii4reW-5">
          <mxGeometry relative="1" as="geometry">
            <mxPoint x="560" y="235" as="targetPoint" />
          </mxGeometry>
        </mxCell>
        <mxCell id="77e6c97f196da883-5" value="Lane 4" style="swimlane;html=1;startSize=20;" parent="77e6c97f196da883-1" vertex="1">
          <mxGeometry x="530" y="20" width="160" height="730" as="geometry" />
        </mxCell>
        <mxCell id="JY_JNldOcuyJMrii4reW-24" value="คอมมิชชั่น = 0" style="rounded=0;whiteSpace=wrap;html=1;" vertex="1" parent="77e6c97f196da883-5">
          <mxGeometry x="30" y="60" width="120" height="60" as="geometry" />
        </mxCell>
        <mxCell id="JY_JNldOcuyJMrii4reW-27" value="คอมมิชชั่น = &lt;br&gt;ยอดขาย x 4%" style="rounded=0;whiteSpace=wrap;html=1;" vertex="1" parent="77e6c97f196da883-5">
          <mxGeometry x="30" y="180" width="120" height="60" as="geometry" />
        </mxCell>
        <mxCell id="JY_JNldOcuyJMrii4reW-28" value="คอมมิชชั่น = &lt;br&gt;ยอดขาย x 6%" style="rounded=0;whiteSpace=wrap;html=1;" vertex="1" parent="77e6c97f196da883-5">
          <mxGeometry x="30" y="300" width="120" height="60" as="geometry" />
        </mxCell>
        <mxCell id="77e6c97f196da883-6" value="Lane 5" style="swimlane;html=1;startSize=20;" parent="77e6c97f196da883-1" vertex="1">
          <mxGeometry x="690" y="20" width="160" height="730" as="geometry" />
        </mxCell>
        <mxCell id="JY_JNldOcuyJMrii4reW-29" value="รายได้สุทธิ = เงินเดือน + คอมมิชชั่น" style="rounded=0;whiteSpace=wrap;html=1;" vertex="1" parent="77e6c97f196da883-6">
          <mxGeometry x="30" y="180" width="120" height="60" as="geometry" />
        </mxCell>
        <mxCell id="JY_JNldOcuyJMrii4reW-3" style="edgeStyle=orthogonalEdgeStyle;rounded=0;orthogonalLoop=1;jettySize=auto;html=1;entryX=0;entryY=0.5;entryDx=0;entryDy=0;" edge="1" parent="77e6c97f196da883-1" target="77e6c97f196da883-13">
          <mxGeometry relative="1" as="geometry">
            <mxPoint x="290" y="115" as="sourcePoint" />
          </mxGeometry>
        </mxCell>
        <mxCell id="JY_JNldOcuyJMrii4reW-15" style="edgeStyle=orthogonalEdgeStyle;rounded=0;orthogonalLoop=1;jettySize=auto;html=1;" edge="1" parent="77e6c97f196da883-1" source="JY_JNldOcuyJMrii4reW-12">
          <mxGeometry relative="1" as="geometry">
            <mxPoint x="560" y="355" as="targetPoint" />
          </mxGeometry>
        </mxCell>
        <mxCell id="JY_JNldOcuyJMrii4reW-26" style="edgeStyle=orthogonalEdgeStyle;rounded=0;orthogonalLoop=1;jettySize=auto;html=1;entryX=0;entryY=0.5;entryDx=0;entryDy=0;" edge="1" parent="77e6c97f196da883-1" source="JY_JNldOcuyJMrii4reW-22" target="JY_JNldOcuyJMrii4reW-25">
          <mxGeometry relative="1" as="geometry" />
        </mxCell>
        <mxCell id="JY_JNldOcuyJMrii4reW-31" value="Lane 6" style="swimlane;whiteSpace=wrap;html=1;" vertex="1" parent="77e6c97f196da883-1">
          <mxGeometry x="850" y="20" width="200" height="730" as="geometry" />
        </mxCell>
        <mxCell id="JY_JNldOcuyJMrii4reW-35" value="แสดงรายได้สุทธิของพนักงานรายนั้น" style="shape=parallelogram;perimeter=parallelogramPerimeter;whiteSpace=wrap;html=1;fixedSize=1;" vertex="1" parent="JY_JNldOcuyJMrii4reW-31">
          <mxGeometry x="30" y="180" width="140" height="60" as="geometry" />
        </mxCell>
        <mxCell id="JY_JNldOcuyJMrii4reW-32" style="edgeStyle=orthogonalEdgeStyle;rounded=0;orthogonalLoop=1;jettySize=auto;html=1;entryX=0.5;entryY=0;entryDx=0;entryDy=0;" edge="1" parent="77e6c97f196da883-1" source="JY_JNldOcuyJMrii4reW-24" target="JY_JNldOcuyJMrii4reW-29">
          <mxGeometry relative="1" as="geometry" />
        </mxCell>
        <mxCell id="JY_JNldOcuyJMrii4reW-33" style="edgeStyle=orthogonalEdgeStyle;rounded=0;orthogonalLoop=1;jettySize=auto;html=1;" edge="1" parent="77e6c97f196da883-1" source="JY_JNldOcuyJMrii4reW-27" target="JY_JNldOcuyJMrii4reW-29">
          <mxGeometry relative="1" as="geometry" />
        </mxCell>
        <mxCell id="JY_JNldOcuyJMrii4reW-34" style="edgeStyle=orthogonalEdgeStyle;rounded=0;orthogonalLoop=1;jettySize=auto;html=1;entryX=0.5;entryY=1;entryDx=0;entryDy=0;" edge="1" parent="77e6c97f196da883-1" source="JY_JNldOcuyJMrii4reW-28" target="JY_JNldOcuyJMrii4reW-29">
          <mxGeometry relative="1" as="geometry" />
        </mxCell>
        <mxCell id="JY_JNldOcuyJMrii4reW-36" style="edgeStyle=orthogonalEdgeStyle;rounded=0;orthogonalLoop=1;jettySize=auto;html=1;" edge="1" parent="77e6c97f196da883-1" source="JY_JNldOcuyJMrii4reW-29" target="JY_JNldOcuyJMrii4reW-35">
          <mxGeometry relative="1" as="geometry" />
        </mxCell>
        <mxCell id="JY_JNldOcuyJMrii4reW-37" value="Lane 7" style="swimlane;whiteSpace=wrap;html=1;" vertex="1" parent="77e6c97f196da883-1">
          <mxGeometry x="1050" y="20" width="200" height="730" as="geometry" />
        </mxCell>
        <mxCell id="JY_JNldOcuyJMrii4reW-40" value="จบ" style="ellipse;whiteSpace=wrap;html=1;" vertex="1" parent="JY_JNldOcuyJMrii4reW-37">
          <mxGeometry x="50" y="170" width="120" height="80" as="geometry" />
        </mxCell>
        <mxCell id="JY_JNldOcuyJMrii4reW-41" style="edgeStyle=orthogonalEdgeStyle;rounded=0;orthogonalLoop=1;jettySize=auto;html=1;entryX=0;entryY=0.5;entryDx=0;entryDy=0;" edge="1" parent="77e6c97f196da883-1" source="JY_JNldOcuyJMrii4reW-35" target="JY_JNldOcuyJMrii4reW-40">
          <mxGeometry relative="1" as="geometry" />
        </mxCell>
      </root>
    </mxGraphModel>
  </diagram>
</mxfile>
